<?xml version="1.0" encoding="UTF-8" standalone="no"?>
<!DOCTYPE svg PUBLIC "-//W3C//DTD SVG 1.1//EN" "http://www.w3.org/Graphics/SVG/1.1/DTD/svg11.dtd">
<svg width="100%" height="100%" viewBox="0 0 21 22" version="1.1" xmlns="http://www.w3.org/2000/svg" xmlns:xlink="http://www.w3.org/1999/xlink" xml:space="preserve" xmlns:serif="http://www.serif.com/" style="fill-rule:evenodd;clip-rule:evenodd;stroke-linejoin:round;stroke-miterlimit:2;">
    <g transform="matrix(1,0,0,1,-13.571,-148.17)">
        <g transform="matrix(1,0,0,1,-10.269,-84.8906)">
            <path id="path2886" d="M27.145,236.976C27.233,237.357 27.526,237.622 28.022,237.773C28.243,237.842 28.721,237.922 29.455,238.01C30.552,238.143 31.069,238.915 31.007,240.321C30.971,241.01 30.631,241.554 29.985,241.952C29.409,242.298 28.715,242.471 27.902,242.471C27.016,242.471 26.292,242.245 25.726,241.794C25.097,241.289 24.761,240.573 24.716,239.645C24.628,237.865 25.318,236.193 26.786,234.628C27.768,233.584 29.303,233.061 31.392,233.061C32.073,233.061 32.741,233.12 33.395,233.236C35.191,233.562 36.655,234.5 37.788,236.049C38.814,237.456 39.329,238.978 39.329,240.614C39.329,240.852 39.315,241.088 39.288,241.318C39.049,243.37 37.677,245.582 35.174,247.952C33.245,249.785 30.918,251.489 28.193,253.065C25.786,254.445 24.375,255.065 23.959,254.933L23.84,254.415C25.336,253.894 26.848,253.086 28.379,251.988C30.405,250.544 31.878,249.182 32.798,247.899C33.903,246.369 34.635,244.467 34.987,242.193C35.129,241.298 35.199,240.489 35.199,239.764C35.199,237.383 34.398,235.712 32.797,234.747C32.097,234.321 31.355,234.108 30.568,234.108C29.401,234.108 28.445,234.456 27.701,235.146C27.285,235.525 27.078,235.961 27.078,236.459C27.079,236.618 27.101,236.79 27.145,236.976ZM43.33,235.794C43.679,236.131 43.854,236.551 43.854,237.054C43.854,237.435 43.739,237.781 43.509,238.089C43.181,238.532 42.721,238.753 42.129,238.753C41.678,238.753 41.288,238.611 40.961,238.329C40.572,237.984 40.378,237.544 40.378,237.016C40.378,236.592 40.506,236.218 40.763,235.9C41.089,235.491 41.528,235.29 42.077,235.29C42.563,235.29 42.979,235.458 43.33,235.794ZM43.33,241.926C43.679,242.262 43.854,242.681 43.854,243.186C43.854,243.567 43.739,243.913 43.509,244.223C43.181,244.662 42.721,244.883 42.129,244.883C41.678,244.883 41.288,244.744 40.961,244.459C40.572,244.115 40.378,243.676 40.378,243.146C40.378,242.722 40.506,242.35 40.763,242.033C41.089,241.626 41.528,241.422 42.077,241.422C42.563,241.423 42.979,241.587 43.33,241.926Z" style="fill-rule:nonzero;"/>
        </g>
    </g>
</svg>
