<?xml version="1.0" encoding="UTF-8" standalone="no"?>
<!DOCTYPE svg PUBLIC "-//W3C//DTD SVG 1.1//EN" "http://www.w3.org/Graphics/SVG/1.1/DTD/svg11.dtd">
<svg width="100%" height="100%" viewBox="0 0 9 26" version="1.1" xmlns="http://www.w3.org/2000/svg" xmlns:xlink="http://www.w3.org/1999/xlink" xml:space="preserve" xmlns:serif="http://www.serif.com/" style="fill-rule:evenodd;clip-rule:evenodd;stroke-linejoin:round;stroke-miterlimit:2;">
    <g transform="matrix(1,0,0,1,-55.3417,-46.1621)">
        <g id="path3291" transform="matrix(1,0,0,1,-44.5631,-0.34342)">
            <path d="M107.531,46.505L107.531,65.444C107.104,65.089 106.439,64.874 105.52,64.874C104.713,64.874 103.867,65.067 102.981,65.451C102.058,65.912 101.328,66.452 100.751,67.143C100.175,67.835 99.905,68.605 99.905,69.374C99.905,70.105 100.175,70.68 100.712,71.143C101.251,71.604 101.904,71.833 102.713,71.833C103.482,71.833 104.328,71.643 105.251,71.257C106.136,70.874 106.905,70.296 107.482,69.566C108.058,68.874 108.328,68.103 108.328,67.297L108.328,46.505L107.531,46.505Z" style="fill-rule:nonzero;"/>
        </g>
    </g>
</svg>
